#!OML:ASF X:\für Bonn\!DataBase\2005_08_11_Bastian_Final\c3d\Bastian.ASF
:FULLY-SPECIFIED
:DEGREES
95
root -1.88779 16.5556 -15.4549 132.002 0.961173 -182.715
lowerback 44.2169 0.306411 -1.14686
upperback 14.7969 7.9112 -7.09109
thorax -3.09486 7.90923 -10.2326
lowerneck 0.635012 -9.26158 -13.1727
upperneck -6.61758 -13.0658 25.169
head 0.698984 -7.27803 9.68027
rclavicle -1.98785e-014 3.02153e-014
rhumerus -7.12175 32.224 -82.7767
rradius 124.973
rwrist 3.96736
rhand -20.9307 11.6157
rfingers 7.12502
rthumb 5.44121 -18.2944
lclavicle -1.98785e-014 3.02153e-014
lhumerus 16.0567 -47.3332 71.4111
lradius 119.998
lwrist 33.4286
lhand -8.55952 -15.0231
lfingers 7.12502
lthumb 17.3704 14.2207
rfemur 26.0154 3.09547 25.708
rtibia 37.4289
rfoot -188.225 -182.32
rtoes 7.88184
lfemur -65.6325 15.6271 -15.2056
ltibia 120.772
lfoot -0.900677 -13.6999
ltoes -36.0891
96
root -1.88795 16.566 -15.5524 131.222 1.31025 -183.39
lowerback 44.6507 0.573645 -1.6429
upperback 15.093 8.42519 -7.47425
thorax -2.76573 8.36219 -10.5787
lowerneck 0.369237 -9.39201 -13.3698
upperneck -6.29909 -13.2739 25.3172
head 0.903144 -7.35042 9.71537
rclavicle -2.22639e-014 7.63333e-014
rhumerus -6.71525 32.0398 -82.3846
rradius 125.186
rwrist 4.15944
rhand -21.0334 12.0919
rfingers 7.12502
rthumb 5.34209 -17.8207
lclavicle -2.22639e-014 7.63333e-014
lhumerus 17.33 -46.8586 70.3919
lradius 119.666
lwrist 33.7489
lhand -8.62776 -15.1241
lfingers 7.12502
lthumb 17.3047 14.1254
rfemur 27.1932 3.6857 25.6227
rtibia 37.5641
rfoot -188.65 -182.495
rtoes 7.47394
lfemur -69.355 15.3162 -16.0202
ltibia 117.662
lfoot -0.62131 -12.8028
ltoes -38.1
97
root -1.88626 16.5901 -15.6466 130.558 1.54732 -184.028
lowerback 44.9529 0.801603 -2.18612
upperback 15.3836 8.86447 -7.89269
thorax -2.41019 8.77597 -10.8991
lowerneck -0.0382089 -9.51106 -13.4218
upperneck -5.90538 -13.4639 25.3711
head 1.13074 -7.40316 9.68491
rclavicle 5.1684e-015 6.36111e-015
rhumerus -6.31151 31.8645 -82.0998
rradius 125.367
rwrist 4.45639
rhand -21.1262 12.5442
rfingers 7.12502
rthumb 5.2525 -17.3708
lclavicle 5.1684e-015 6.36111e-015
lhumerus 18.5753 -46.3636 69.352
lradius 119.374
lwrist 34.0237
lhand -8.74036 -15.1918
lfingers 7.12502
lthumb 17.1964 14.0673
rfemur 28.4269 4.14288 25.4534
rtibia 37.2887
rfoot -188.826 -182.645
rtoes 6.69585
lfemur -72.7416 14.771 -16.6273
ltibia 113.784
lfoot -0.163067 -11.977
ltoes -39.7369
98
root -1.88521 16.607 -15.7448 129.928 1.69444 -184.65
lowerback 45.2074 1.06219 -2.85192
upperback 15.6765 9.28861 -8.21942
thorax -2.05251 9.16413 -11.0421
lowerneck -0.492712 -9.62826 -13.612
upperneck -5.46555 -13.6427 25.3929
head 1.38509 -7.43693 9.66387
rclavicle -3.1408e-014 4.92986e-014
rhumerus -5.96887 31.7489 -81.6779
rradius 125.596
rwrist 4.8328
rhand -21.1442 12.9046
rfingers 7.12502
rthumb 5.23514 -17.0107
lclavicle -3.1408e-014 4.92986e-014
lhumerus 19.6382 -45.8508 68.5882
lradius 119.139
lwrist 34.185
lhand -8.83884 -15.1996
lfingers 7.12502
lthumb 17.1016 14.0677
rfemur 29.6981 4.5219 25.2149
rtibia 36.8378
rfoot -188.919 -182.785
rtoes 5.74851
lfemur -75.5148 14.079 -16.9772
ltibia 109.128
lfoot 0.494688 -11.2439
ltoes -39.7671
99
root -1.88604 16.6151 -15.8489 129.372 1.78227 -185.243
lowerback 45.405 1.35064 -3.57044
upperback 15.9339 9.69114 -8.47798
thorax -1.73109 9.51319 -11.073
lowerneck -0.908274 -9.75298 -13.8897
upperneck -4.97196 -13.8286 25.361
head 1.65123 -7.46654 9.64025
rclavicle -3.57812e-015 -6.36111e-015
rhumerus -5.77235 31.6523 -81.2081
rradius 125.867
rwrist 5.22476
rhand -21.0784 13.1907
rfingers 7.12502
rthumb 5.29862 -16.723
lclavicle -3.57812e-015 -6.36111e-015
lhumerus 20.4491 -45.405 68.061
lradius 118.978
lwrist 34.1712
lhand -8.96985 -15.1924
lfingers 7.12502
lthumb 16.9755 14.0858
rfemur 30.9596 4.8434 24.9349
rtibia 36.2509
rfoot -188.929 -182.942
rtoes 4.64331
lfemur -77.6128 13.3422 -17.0639
ltibia 103.805
lfoot 1.89753 -10.4773
ltoes -38.7051
100
root -1.88492 16.6458 -15.9392 128.894 1.79309 -185.795
lowerback 45.5186 1.60814 -4.30358
upperback 16.1947 10.0429 -8.7229
thorax -1.39171 9.82773 -11.0519
lowerneck -1.40628 -9.8799 -14.1718
upperneck -4.41152 -14.0101 25.2689
head 1.94477 -7.4836 9.59156
rclavicle 1.51076e-014 2.54444e-014
rhumerus -5.63677 31.6009 -80.7526
rradius 126.101
rwrist 5.70414
rhand -20.9357 13.4571
rfingers 7.12502
rthumb 5.43641 -16.4532
lclavicle 1.51076e-014 2.54444e-014
lhumerus 21.0767 -45.0527 67.7474
lradius 118.823
lwrist 33.9214
lhand -9.06189 -15.2208
lfingers 7.12502
lthumb 16.8869 14.065
rfemur 32.1809 5.12892 24.6263
rtibia 35.5072
rfoot -188.829 -183.074
rtoes 3.66092
lfemur -79.223 12.4721 -16.8729
ltibia 97.8741
lfoot 3.72182 -9.51992
ltoes -39.1985
101
root -1.88219 16.6852 -16.0198 128.429 1.78622 -186.304
lowerback 45.6381 1.83924 -5.02425
upperback 16.4364 10.3558 -8.96347
thorax -1.07786 10.1159 -11.0216
lowerneck -1.7695 -9.98049 -14.3439
upperneck -3.89667 -14.1443 25.0455
head 2.17193 -7.48496 9.49633
rclavicle 1.11319e-014 8.90555e-014
rhumerus -5.67323 31.575 -80.3761
rradius 126.356
rwrist 6.19878
rhand -20.7023 13.7705
rfingers 7.12502
rthumb 5.66177 -16.1338
lclavicle 1.11319e-014 8.90555e-014
lhumerus 21.6147 -44.8008 67.5471
lradius 118.68
lwrist 33.4559
lhand -9.18075 -15.2196
lfingers 7.12502
lthumb 16.7724 14.076
rfemur 33.4156 5.36726 24.3044
rtibia 34.6258
rfoot -188.653 -183.164
rtoes 2.96074
lfemur -80.2621 11.5033 -16.2906
ltibia 91.5035
lfoot 5.55687 -8.47763
ltoes -40.5851
102
root -1.87888 16.7223 -16.0959 128.031 1.75678 -186.769
lowerback 45.6996 2.05035 -5.74343
upperback 16.6585 10.6163 -9.18619
thorax -0.780415 10.3591 -10.9501
lowerneck -2.20329 -10.088 -14.5123
upperneck -3.27066 -14.2839 24.7284
head 2.43464 -7.47747 9.36316
rclavicle -2.14687e-014 2.54444e-014
rhumerus -5.86789 31.6308 -80.0157
rradius 126.569
rwrist 6.63029
rhand -20.4762 14.1547
rfingers 7.12502
rthumb 5.88008 -15.7437
lclavicle -2.14687e-014 2.54444e-014
lhumerus 22.0902 -44.5111 67.3719
lradius 118.559
lwrist 32.8802
lhand -9.29878 -15.2224
lfingers 7.12502
lthumb 16.6588 14.0827
rfemur 34.5785 5.55684 23.9594
rtibia 33.6505
rfoot -188.392 -183.164
rtoes 2.36446
lfemur -80.8327 10.5116 -15.4075
ltibia 84.8005
lfoot 7.12172 -7.65422
ltoes -42.5278
103
root -1.87493 16.7557 -16.1689 127.642 1.74584 -187.194
lowerback 45.7805 2.24386 -6.42998
upperback 16.8572 10.8494 -9.39913
thorax -0.515793 10.5799 -10.8813
lowerneck -2.60568 -10.1808 -14.675
upperneck -2.63357 -14.3989 24.3705
head 2.68599 -7.46017 9.22159
rclavicle 1.74931e-014 8.26944e-014
rhumerus -6.18718 31.6821 -79.7049
rradius 126.74
rwrist 6.90291
rhand -20.2036 14.6506
rfingers 7.12502
rthumb 6.14327 -15.2403
lclavicle 1.74931e-014 8.26944e-014
lhumerus 22.4927 -44.2415 67.2335
lradius 118.468
lwrist 32.2079
lhand -9.41068 -15.2284
lfingers 7.12502
lthumb 16.5511 14.0858
rfemur 35.7156 5.74695 23.6494
rtibia 32.6604
rfoot -188.11 -183.138
rtoes 2.3107
lfemur -80.911 9.57149 -14.241
ltibia 77.8286
lfoot 7.87199 -7.24948
ltoes -44.6229
104
root -1.87331 16.7771 -16.246 127.296 1.75924 -187.553
lowerback 45.844 2.40107 -7.03835
upperback 17.0291 11.0356 -9.60172
thorax -0.281653 10.7638 -10.8279
lowerneck -2.90203 -10.2422 -14.839
upperneck -2.01851 -14.4721 23.9997
head 2.90361 -7.43137 9.0893
rclavicle -3.18055e-015 -6.99722e-014
rhumerus -6.61771 31.7131 -79.3971
rradius 126.893
rwrist 6.87104
rhand -19.9318 15.2192
rfingers 7.12502
rthumb 6.40569 -14.6639
lclavicle -3.18055e-015 -6.99722e-014
lhumerus 22.8557 -43.9411 67.1211
lradius 118.356
lwrist 31.524
lhand -9.47073 -15.2748
lfingers 7.12502
lthumb 16.4933 14.0441
rfemur 36.7844 5.88591 23.357
rtibia 31.691
rfoot -187.856 -183.035
rtoes 2.41999
lfemur -80.5331 8.73823 -12.9295
ltibia 70.7425
lfoot 8.31927 -7.04375
ltoes -47.3897
105
root -1.86902 16.8051 -16.3079 126.966 1.85453 -187.853
lowerback 45.9105 2.54063 -7.56927
upperback 17.1781 11.1967 -9.78386
thorax -0.0777844 10.9219 -10.788
lowerneck -3.24566 -10.2842 -15.0012
upperneck -1.28223 -14.5255 23.5961
head 3.15724 -7.38714 8.94522
rclavicle 3.65764e-014 -1.81292e-013
rhumerus -7.08337 31.7348 -79.0812
rradius 126.893
rwrist 6.52362
rhand -19.6862 15.871
rfingers 7.12502
rthumb 6.6428 -14.0048
lclavicle 3.65764e-014 -1.81292e-013
lhumerus 23.0889 -43.6367 67.0752
lradius 118.243
lwrist 30.7996
lhand -9.51534 -15.3927
lfingers 7.12502
lthumb 16.4503 13.9299
rfemur 37.7613 5.9834 23.1164
rtibia 30.7322
rfoot -187.55 -182.863
rtoes 2.59161
lfemur -79.9904 8.07497 -11.4352
ltibia 63.8552
lfoot 8.08446 -6.99528
ltoes -47.5183
106
root -1.86189 16.838 -16.352 126.625 1.99466 -188.118
lowerback 46.9242 2.87752 -8.39385
upperback 16.4122 11.2891 -9.94952
thorax -0.038989 11.0526 -10.6002
lowerneck -3.63221 -10.2963 -15.1619
upperneck -0.406596 -14.5545 23.1992
head 3.45475 -7.32716 8.8041
rclavicle 1.90833e-014 7.95139e-014
rhumerus -7.60377 31.8372 -78.8657
rradius 126.711
rwrist 5.98737
rhand -19.5622 16.4694
rfingers 7.12502
rthumb 6.76247 -13.4026
lclavicle 1.90833e-014 7.95139e-014
lhumerus 23.1503 -43.3115 67.1286
lradius 118.216
lwrist 30.0907
lhand -9.50498 -15.4032
lfingers 7.12502
lthumb 16.4603 13.9185
rfemur 38.6624 6.03432 22.8761
rtibia 29.7943
rfoot -187.204 -182.576
rtoes 2.82496
lfemur -79.2678 7.4289 -9.66548
ltibia 57.3164
lfoot 6.81018 -6.48395
ltoes -47.6429
107
root -1.85651 16.8601 -16.3949 126.288 2.25333 -188.296
lowerback 47.1054 3.01229 -8.77253
upperback 16.4575 11.4004 -10.0913
thorax 0.0262516 11.159 -10.6199
lowerneck -3.90171 -10.2719 -15.3728
upperneck 0.453422 -14.547 22.8706
head 3.73202 -7.2615 8.70764
rclavicle -7.39479e-014 1.27222e-013
rhumerus -8.15675 31.9364 -78.6586
rradius 126.423
rwrist 5.17824
rhand -19.4326 16.844
rfingers 7.12502
rthumb 6.88757 -13.024
lclavicle -7.39479e-014 1.27222e-013
lhumerus 23.0908 -43.0163 67.236
lradius 118.161
lwrist 29.4683
lhand -9.4652 -15.4667
lfingers 7.12502
lthumb 16.4986 13.8519
rfemur 39.5332 6.04547 22.7405
rtibia 28.8272
rfoot -186.812 -182.221
rtoes 3.22991
lfemur -78.2885 6.85073 -7.69888
ltibia 51.25
lfoot 4.15037 -5.42377
ltoes -47.2123
